<svg xmlns="http://www.w3.org/2000/svg" xmlns:xlink="http://www.w3.org/1999/xlink" viewBox="0 0 64 64"><defs><style>.cls-1{fill:url(#linear-gradient);}.cls-2{fill:url(#linear-gradient-2);}</style><linearGradient id="linear-gradient" x1="21.62" y1="32" x2="58" y2="32" gradientUnits="userSpaceOnUse"><stop offset="0" stop-color="#2e60c2" id="id_113"></stop><stop offset="1" stop-color="#b83f8e" id="id_114"></stop></linearGradient><linearGradient id="linear-gradient-2" x1="6" x2="45.78" xlink:href="#linear-gradient"></linearGradient></defs><g id="Layer_82" data-name="Layer 82"><path class="cls-1" d="M56,2H23.62a2,2,0,0,0-2,2V19.73a2,2,0,0,0,4,0V6H54V58H25.62V44.27a2,2,0,0,0-4,0V60a2,2,0,0,0,2,2H56a2,2,0,0,0,2-2V4A2,2,0,0,0,56,2Z" id="id_111"></path><path class="cls-2" d="M31.54,42.24A2,2,0,0,0,35,43.65L45.19,33.41a2,2,0,0,0,0-2.82L35,20.35a2,2,0,0,0-3.16.45,1.91,1.91,0,0,0-.25,1V30H8a2,2,0,0,0,0,4H31.54Zm4-4.83V26.59L41,32Z" id="id_112"></path></g></svg>